<svg width="512" height="380" viewBox="0 0 512 380" fill="none" xmlns="http://www.w3.org/2000/svg">
<path d="M488.727 0.494019H256H23.273C10.42 0.494019 0 10.914 0 23.767V356.233C0 369.086 10.42 379.506 23.273 379.506H256H488.727C501.58 379.506 512 369.086 512 356.233V23.767C512 10.914 501.58 0.494019 488.727 0.494019Z" fill="#211F29"/>
<path d="M273.776 123.773C278.891 129.633 283.346 136.083 287.012 143.015C294.439 157.056 298.667 173.041 298.667 190.001C298.667 206.961 294.439 222.944 287.012 236.987C283.346 243.919 278.891 250.367 273.776 256.227C268.512 262.258 262.546 267.654 256 272.296C272.454 283.96 292.523 290.849 314.182 290.849C369.79 290.849 415.031 245.608 415.031 190.001C415.031 134.394 369.79 89.152 314.182 89.152C292.523 89.152 272.454 96.038 256 107.705C262.544 112.347 268.51 117.744 273.776 123.773Z" fill="#FFB655"/>
<path d="M287.012 143.016C283.346 136.082 278.891 129.634 273.776 123.774C268.509 117.743 262.545 112.349 256 107.708C239.548 96.041 219.477 89.155 197.818 89.155C142.21 89.155 96.97 134.396 96.97 190.003C96.97 245.61 142.211 290.851 197.818 290.851C219.477 290.851 239.548 283.964 256 272.298C262.546 267.657 268.51 262.26 273.776 256.231C278.891 250.371 283.346 243.921 287.012 236.991C294.439 222.948 298.667 206.963 298.667 190.005C298.667 173.041 294.439 157.057 287.012 143.016Z" fill="#D8143A"/>
</svg>
