<svg width="512" height="380" viewBox="0 0 512 380" fill="none" xmlns="http://www.w3.org/2000/svg">
<path d="M488.727 0.324951H256H23.273C10.42 0.324951 0 10.7449 0 23.5979V356.064C0 368.917 10.42 379.337 23.273 379.337H256H488.727C501.58 379.337 512 368.917 512 356.064V23.5979C512 10.7449 501.58 0.324951 488.727 0.324951Z" fill="#F3F3F3"/>
<path d="M207.022 238.289L224.156 141.908H250.929L234.33 238.289H207.022Z" fill="#3C58BF"/>
<path d="M207.022 238.289L228.976 141.908H250.929L234.33 238.289H207.022Z" fill="#293688"/>
<path d="M331.247 142.979C325.893 140.837 317.325 138.695 306.616 138.695C279.844 138.695 260.567 152.082 260.567 171.358C260.567 185.815 273.954 193.311 284.663 198.13C295.372 202.95 298.584 206.162 298.584 210.446C298.584 216.871 290.017 220.084 282.521 220.084C271.812 220.084 265.922 218.478 256.819 214.73L253.071 213.123L249.323 235.077C255.748 237.754 267.528 240.431 279.844 240.431C308.223 240.431 326.963 227.045 326.963 206.698C326.963 195.453 320.003 186.886 303.939 179.925C294.301 175.106 288.411 172.429 288.411 167.61C288.411 163.326 293.23 159.042 303.939 159.042C313.042 159.042 319.467 160.649 324.286 162.791L326.963 163.861L331.247 142.979Z" fill="#3C58BF"/>
<path d="M331.247 142.979C325.893 140.837 317.325 138.695 306.616 138.695C279.844 138.695 265.386 152.082 265.386 171.358C265.386 185.815 273.954 193.311 284.663 198.13C295.372 202.95 298.584 206.162 298.584 210.446C298.584 216.871 290.017 220.084 282.521 220.084C271.812 220.084 265.922 218.478 256.819 214.73L253.071 213.123L249.323 235.077C255.748 237.754 267.528 240.431 279.844 240.431C308.223 240.431 326.963 227.045 326.963 206.698C326.963 195.453 320.003 186.886 303.939 179.925C294.301 175.106 288.411 172.429 288.411 167.61C288.411 163.326 293.23 159.042 303.939 159.042C313.042 159.042 319.467 160.649 324.286 162.791L326.963 163.861L331.247 142.979Z" fill="#293688"/>
<path d="M377.296 141.908C370.871 141.908 366.051 142.443 363.374 148.869L323.215 238.289H352.13L357.484 222.226H391.753L394.966 238.289H420.668L398.179 141.908H377.296V141.908ZM364.981 206.162C366.587 201.343 375.69 177.783 375.69 177.783C375.69 177.783 377.831 171.893 379.438 168.145L381.044 177.248C381.044 177.248 386.399 201.343 387.47 206.698H364.981V206.162Z" fill="#3C58BF"/>
<path d="M383.721 141.908C377.296 141.908 372.477 142.443 369.8 148.869L323.215 238.289H352.13L357.484 222.226H391.753L394.966 238.289H420.668L398.179 141.908H383.721V141.908ZM364.981 206.162C367.122 200.808 375.69 177.783 375.69 177.783C375.69 177.783 377.831 171.893 379.438 168.145L381.044 177.248C381.044 177.248 386.399 201.343 387.47 206.698H364.981V206.162Z" fill="#293688"/>
<path d="M157.76 209.375L155.083 195.453C150.264 179.389 134.736 161.72 117.601 153.152L141.697 238.825H170.611L213.983 142.443H185.068L157.76 209.375Z" fill="#3C58BF"/>
<path d="M157.76 209.375L155.083 195.453C150.264 179.389 134.736 161.72 117.601 153.152L141.697 238.825H170.611L213.983 142.443H190.423L157.76 209.375Z" fill="#293688"/>
<path d="M83.3323 141.908L88.1514 142.979C122.42 151.011 145.98 171.358 155.083 195.453L145.445 149.94C143.838 143.514 139.019 141.908 133.129 141.908H83.3323V141.908Z" fill="#FFBC00"/>
<path d="M83.3323 141.908C117.601 149.94 145.98 170.822 155.083 194.918L145.98 156.901C144.374 150.475 139.019 146.727 133.129 146.727L83.3323 141.908Z" fill="#F7981D"/>
<path d="M83.3323 141.908C117.601 149.94 145.98 170.822 155.083 194.918L148.658 174.035C147.051 167.61 144.909 161.184 137.413 158.507L83.3323 141.908Z" fill="#ED7C00"/>
<path d="M184.533 206.162L166.327 187.957L157.76 208.304L155.618 194.918C150.799 178.854 135.271 161.184 118.137 152.617L142.232 238.289H171.147L184.533 206.162Z" fill="#051244"/>
<path d="M234.33 238.289L211.306 214.729L207.022 238.289H234.33Z" fill="#051244"/>
<path d="M295.907 205.091C298.049 207.233 299.12 208.839 298.584 210.981C298.584 217.407 290.017 220.619 282.521 220.619C271.812 220.619 265.922 219.013 256.819 215.265L253.071 213.659L249.323 235.612C255.748 238.289 267.528 240.967 279.844 240.967C296.978 240.967 310.9 236.148 318.932 227.58L295.907 205.091Z" fill="#051244"/>
<path d="M326.963 238.289H352.13L357.484 222.226H391.753L394.966 238.289H420.668L411.565 199.201L379.438 168.145L381.044 176.712C381.044 176.712 386.399 200.808 387.47 206.162H364.981C367.122 200.808 375.69 177.783 375.69 177.783C375.69 177.783 377.831 171.893 379.438 168.145" fill="#051244"/>
</svg>
